<svg xmlns="http://www.w3.org/2000/svg" xmlns:xlink="http://www.w3.org/1999/xlink" width="500" zoomAndPan="magnify" viewBox="0 0 375 374.999991" height="500" preserveAspectRatio="xMidYMid meet" version="1.2"><defs><clipPath id="08a8be426d"><path d="M 187 88.085938 L 298 88.085938 L 298 220.617188 L 187 220.617188 Z M 187 88.085938 "/></clipPath><clipPath id="a61ee7245e"><path d="M 77.757812 88.085938 L 188 88.085938 L 188 220.617188 L 77.757812 220.617188 Z M 77.757812 88.085938 "/></clipPath></defs><g id="e03e55eb9d"><rect x="0" width="375" y="0" height="374.999991" style="fill:#ffffff;fill-opacity:1;stroke:none;"/><rect x="0" width="375" y="0" height="374.999991" style="fill:#000000;fill-opacity:1;stroke:none;"/><g clip-rule="nonzero" clip-path="url(#08a8be426d)"><path style=" stroke:none;fill-rule:nonzero;fill:#ce9f41;fill-opacity:1;" d="M 254.761719 94.769531 C 247.867188 96.027344 243.292969 102.636719 244.554688 109.53125 C 245.808594 116.429688 252.421875 121 259.316406 119.742188 C 266.210938 118.484375 270.785156 111.871094 269.527344 104.976562 C 268.269531 98.082031 261.65625 93.511719 254.761719 94.769531 Z M 259.28125 220.269531 L 187.460938 88.089844 L 259.484375 186.242188 L 275.449219 146.480469 L 238.304688 148.144531 L 224.59375 129.546875 L 285.964844 131.136719 L 297.152344 131.429688 L 292.96875 141.242188 L 266.535156 203.261719 L 259.28125 220.269531 "/></g><g clip-rule="nonzero" clip-path="url(#a61ee7245e)"><path style=" stroke:none;fill-rule:nonzero;fill:#ffffff;fill-opacity:1;" d="M 105.398438 104.976562 C 104.140625 111.871094 108.710938 118.484375 115.605469 119.742188 C 122.503906 121 129.113281 116.429688 130.371094 109.53125 C 131.628906 102.636719 127.058594 96.027344 120.164062 94.769531 C 113.265625 93.511719 106.65625 98.082031 105.398438 104.976562 Z M 108.390625 203.261719 L 81.953125 141.242188 L 77.773438 131.429688 L 88.960938 131.136719 L 150.332031 129.546875 L 136.621094 148.144531 L 99.476562 146.480469 L 115.441406 186.242188 L 187.460938 88.089844 L 115.640625 220.269531 L 108.390625 203.261719 "/></g><path style=" stroke:none;fill-rule:nonzero;fill:#ce9f41;fill-opacity:1;" d="M 197.292969 153.191406 L 190.363281 153.191406 L 190.363281 160.117188 L 197.292969 160.117188 Z M 184.558594 153.191406 L 177.632812 153.191406 L 177.632812 160.117188 L 184.558594 160.117188 Z M 197.292969 141.769531 L 190.363281 141.769531 L 190.363281 148.699219 L 197.292969 148.699219 Z M 184.558594 148.699219 L 177.632812 148.699219 L 177.632812 141.769531 L 184.558594 141.769531 L 184.558594 148.699219 "/><g style="fill:#ffffff;fill-opacity:1;"><g transform="translate(20.983803, 271.96357)"><path style="stroke:none" d="M 0.09375 0 L 0.1875 -0.46875 L 1.078125 -0.75 C 2.210938 -1.1875 2.875 -1.972656 3.0625 -3.109375 L 5.609375 -16.5 C 5.921875 -18.15625 6.25 -20 6.59375 -22.03125 C 6.9375 -24.0625 7.269531 -25.984375 7.59375 -27.796875 C 7.8125 -29.054688 7.320312 -29.921875 6.125 -30.390625 L 5.65625 -30.625 L 5.75 -31.109375 L 27 -31.109375 L 25.828125 -22.90625 L 25.359375 -22.90625 L 24.40625 -27.234375 C 24.1875 -28.242188 23.796875 -28.984375 23.234375 -29.453125 C 22.671875 -29.921875 21.835938 -30.15625 20.734375 -30.15625 L 14.5625 -30.15625 L 11.96875 -16.5 L 16.3125 -16.5 C 17.71875 -16.5 18.785156 -17.0625 19.515625 -18.1875 L 21.0625 -20.546875 L 21.53125 -20.546875 L 19.84375 -11.546875 L 19.375 -11.546875 L 18.796875 -13.4375 C 18.390625 -14.84375 17.445312 -15.546875 15.96875 -15.546875 L 11.78125 -15.546875 C 11.375 -13.253906 10.929688 -10.835938 10.453125 -8.296875 C 9.984375 -5.753906 9.5625 -3.300781 9.1875 -0.9375 L 16.78125 -0.9375 C 17.75 -0.9375 18.578125 -1.132812 19.265625 -1.53125 C 19.960938 -1.925781 20.640625 -2.59375 21.296875 -3.53125 L 24.453125 -8.203125 L 24.921875 -8.203125 L 23.046875 0 Z M 0.09375 0 "/></g></g><g style="fill:#ffffff;fill-opacity:1;"><g transform="translate(47.277783, 271.96357)"><path style="stroke:none" d="M 0.09375 0 L 0.140625 -0.46875 L 1.078125 -0.796875 C 2.179688 -1.171875 2.84375 -1.925781 3.0625 -3.0625 L 5.609375 -16.5 C 5.921875 -18.15625 6.253906 -20.015625 6.609375 -22.078125 C 6.972656 -24.140625 7.316406 -26.078125 7.640625 -27.890625 C 7.828125 -29.023438 7.367188 -29.859375 6.265625 -30.390625 L 5.65625 -30.625 L 5.75 -31.109375 L 17.390625 -31.109375 L 17.34375 -30.625 L 16.15625 -30.25 C 15.03125 -29.84375 14.359375 -29.054688 14.140625 -27.890625 L 11.59375 -14.65625 C 11.34375 -13.332031 11.078125 -11.863281 10.796875 -10.25 C 10.515625 -8.632812 10.226562 -7.015625 9.9375 -5.390625 C 9.65625 -3.773438 9.40625 -2.289062 9.1875 -0.9375 L 14.234375 -0.9375 C 15.585938 -0.9375 16.738281 -1.179688 17.6875 -1.671875 C 18.644531 -2.160156 19.519531 -2.9375 20.3125 -4 L 24.03125 -9.140625 L 24.5 -9.140625 L 22.53125 0 Z M 0.09375 0 "/></g></g><g style="fill:#ffffff;fill-opacity:1;"><g transform="translate(72.582215, 271.96357)"><path style="stroke:none" d="M 0.09375 0 L 0.234375 -0.46875 L 1.65625 -1.078125 C 2.40625 -1.398438 2.859375 -1.96875 3.015625 -2.78125 L 5.609375 -16.5 C 5.921875 -18.25 6.265625 -20.175781 6.640625 -22.28125 C 7.015625 -24.394531 7.363281 -26.378906 7.6875 -28.234375 C 7.84375 -29.171875 7.460938 -29.84375 6.546875 -30.25 L 5.609375 -30.625 L 5.75 -31.109375 L 17.109375 -31.109375 L 17.015625 -30.625 L 15.640625 -30.109375 C 14.890625 -29.828125 14.40625 -29.25 14.1875 -28.375 L 11.59375 -14.65625 C 11.28125 -12.894531 10.929688 -10.960938 10.546875 -8.859375 C 10.171875 -6.753906 9.8125 -4.773438 9.46875 -2.921875 C 9.375 -2.015625 9.738281 -1.351562 10.5625 -0.9375 L 11.640625 -0.46875 L 11.5 0 Z M 0.09375 0 "/></g></g><g style="fill:#ffffff;fill-opacity:1;"><g transform="translate(87.425606, 271.96357)"><path style="stroke:none" d="M 6.21875 0 L 6.3125 -0.46875 L 7.453125 -0.890625 C 8.890625 -1.492188 9.765625 -2.5625 10.078125 -4.09375 L 12.390625 -16.5 C 12.640625 -17.8125 12.914062 -19.273438 13.21875 -20.890625 C 13.519531 -22.515625 13.8125 -24.132812 14.09375 -25.75 C 14.375 -27.375 14.625 -28.84375 14.84375 -30.15625 L 12.8125 -30.15625 C 11.6875 -30.15625 10.710938 -29.953125 9.890625 -29.546875 C 9.078125 -29.140625 8.34375 -28.476562 7.6875 -27.5625 L 3.90625 -22.4375 L 3.4375 -22.4375 L 5.1875 -31.109375 L 31.296875 -31.109375 L 29.78125 -22.4375 L 29.3125 -22.4375 L 27.5625 -27.1875 C 26.875 -29.164062 25.445312 -30.15625 23.28125 -30.15625 L 21.34375 -30.15625 L 18.421875 -14.65625 C 18.109375 -13.050781 17.785156 -11.328125 17.453125 -9.484375 C 17.128906 -7.648438 16.8125 -5.867188 16.5 -4.140625 C 16.207031 -2.515625 16.816406 -1.382812 18.328125 -0.75 L 18.9375 -0.46875 L 18.84375 0 Z M 6.21875 0 "/></g></g><g style="fill:#ffffff;fill-opacity:1;"><g transform="translate(115.651585, 271.96357)"><path style="stroke:none" d="M 0.09375 0 L 0.1875 -0.46875 L 1.078125 -0.75 C 2.210938 -1.1875 2.875 -1.972656 3.0625 -3.109375 L 5.609375 -16.5 C 5.921875 -18.15625 6.25 -20 6.59375 -22.03125 C 6.9375 -24.0625 7.269531 -25.984375 7.59375 -27.796875 C 7.8125 -29.054688 7.320312 -29.921875 6.125 -30.390625 L 5.65625 -30.625 L 5.75 -31.109375 L 27 -31.109375 L 25.828125 -22.90625 L 25.359375 -22.90625 L 24.40625 -27.234375 C 24.1875 -28.242188 23.796875 -28.984375 23.234375 -29.453125 C 22.671875 -29.921875 21.835938 -30.15625 20.734375 -30.15625 L 14.5625 -30.15625 L 11.96875 -16.5 L 16.3125 -16.5 C 17.71875 -16.5 18.785156 -17.0625 19.515625 -18.1875 L 21.0625 -20.546875 L 21.53125 -20.546875 L 19.84375 -11.546875 L 19.375 -11.546875 L 18.796875 -13.4375 C 18.390625 -14.84375 17.445312 -15.546875 15.96875 -15.546875 L 11.78125 -15.546875 C 11.375 -13.253906 10.929688 -10.835938 10.453125 -8.296875 C 9.984375 -5.753906 9.5625 -3.300781 9.1875 -0.9375 L 16.78125 -0.9375 C 17.75 -0.9375 18.578125 -1.132812 19.265625 -1.53125 C 19.960938 -1.925781 20.640625 -2.59375 21.296875 -3.53125 L 24.453125 -8.203125 L 24.921875 -8.203125 L 23.046875 0 Z M 0.09375 0 "/></g></g><g style="fill:#ffffff;fill-opacity:1;"><g transform="translate(141.945565, 271.96357)"><path style="stroke:none" d=""/></g></g><g style="fill:#ffffff;fill-opacity:1;"><g transform="translate(152.359511, 271.96357)"><path style="stroke:none" d="M 0.09375 0 L 0.1875 -0.46875 L 1.359375 -0.84375 C 2.304688 -1.25 2.859375 -1.925781 3.015625 -2.875 L 5.609375 -16.5 C 5.921875 -18.1875 6.265625 -20.078125 6.640625 -22.171875 C 7.015625 -24.265625 7.363281 -26.238281 7.6875 -28.09375 C 7.875 -29.1875 7.429688 -29.9375 6.359375 -30.34375 L 5.65625 -30.625 L 5.75 -31.109375 L 17.34375 -31.109375 L 17.25 -30.625 L 16.015625 -30.25 C 14.953125 -29.875 14.328125 -29.15625 14.140625 -28.09375 L 12.015625 -16.5 L 23.703125 -16.5 C 23.890625 -17.53125 24.097656 -18.703125 24.328125 -20.015625 C 24.566406 -21.335938 24.804688 -22.691406 25.046875 -24.078125 C 25.285156 -25.460938 25.5 -26.75 25.6875 -27.9375 C 25.875 -29.132812 25.414062 -29.953125 24.3125 -30.390625 L 23.609375 -30.625 L 23.703125 -31.109375 L 35.296875 -31.109375 L 35.203125 -30.625 L 34.078125 -30.25 C 33.035156 -29.875 32.40625 -29.15625 32.1875 -28.09375 L 29.640625 -14.65625 C 29.328125 -12.894531 29 -11.046875 28.65625 -9.109375 C 28.3125 -7.179688 27.945312 -5.117188 27.5625 -2.921875 C 27.40625 -1.910156 27.785156 -1.234375 28.703125 -0.890625 L 29.78125 -0.46875 L 29.6875 0 L 17.953125 0 L 18.046875 -0.46875 L 19.421875 -0.9375 C 20.328125 -1.25 20.875 -1.878906 21.0625 -2.828125 L 23.46875 -15.546875 L 11.78125 -15.546875 C 11.4375 -13.753906 11.066406 -11.765625 10.671875 -9.578125 C 10.273438 -7.398438 9.890625 -5.164062 9.515625 -2.875 C 9.359375 -1.894531 9.722656 -1.21875 10.609375 -0.84375 L 11.5 -0.46875 L 11.40625 0 Z M 0.09375 0 "/></g></g><g style="fill:#ffffff;fill-opacity:1;"><g transform="translate(185.39194, 271.96357)"><path style="stroke:none" d="M -1.03125 0 L -0.890625 -0.46875 L 0.796875 -0.9375 C 2.054688 -1.28125 2.96875 -2.050781 3.53125 -3.25 L 17.859375 -31.109375 L 21.671875 -31.109375 L 26.109375 -3.296875 C 26.234375 -2.203125 26.828125 -1.414062 27.890625 -0.9375 L 29.125 -0.46875 L 29.03125 0 L 17.203125 0 L 17.34375 -0.46875 L 18.375 -0.84375 C 19.476562 -1.25 19.9375 -2.003906 19.75 -3.109375 L 18.65625 -10.703125 L 8.625 -10.703125 L 4.671875 -3.0625 C 4.410156 -2.5625 4.359375 -2.117188 4.515625 -1.734375 C 4.679688 -1.359375 5.015625 -1.09375 5.515625 -0.9375 L 6.96875 -0.46875 L 6.875 0 Z M 16.5 -25.96875 L 9.09375 -11.640625 L 18.515625 -11.640625 Z M 16.5 -25.96875 "/></g></g><g style="fill:#ffffff;fill-opacity:1;"><g transform="translate(216.445215, 271.96357)"><path style="stroke:none" d="M 14.46875 0.84375 C 11.257812 0.84375 8.671875 0.0664062 6.703125 -1.484375 C 4.742188 -3.035156 3.765625 -5.382812 3.765625 -8.53125 C 3.765625 -9.21875 3.816406 -9.921875 3.921875 -10.640625 C 4.035156 -11.367188 4.15625 -12.125 4.28125 -12.90625 L 5 -16.875 C 5.25 -18.445312 5.550781 -20.171875 5.90625 -22.046875 C 6.269531 -23.929688 6.609375 -25.738281 6.921875 -27.46875 C 7.140625 -28.945312 6.546875 -29.953125 5.140625 -30.484375 L 4.8125 -30.625 L 4.90625 -31.109375 L 16.828125 -31.109375 L 16.734375 -30.625 L 16.265625 -30.4375 C 14.847656 -29.96875 14 -28.992188 13.71875 -27.515625 L 11.03125 -13.234375 C 10.90625 -12.515625 10.796875 -11.785156 10.703125 -11.046875 C 10.609375 -10.304688 10.5625 -9.5625 10.5625 -8.8125 C 10.5625 -6.707031 11.085938 -5.054688 12.140625 -3.859375 C 13.191406 -2.671875 14.722656 -2.078125 16.734375 -2.078125 C 19.085938 -2.078125 20.984375 -2.882812 22.421875 -4.5 C 23.867188 -6.113281 24.847656 -8.289062 25.359375 -11.03125 L 28.46875 -27.46875 C 28.75 -29.007812 28.164062 -30.03125 26.71875 -30.53125 L 26.4375 -30.625 L 26.53125 -31.109375 L 32.84375 -31.109375 L 32.75 -30.625 L 32.28125 -30.4375 C 30.863281 -29.96875 30.015625 -28.992188 29.734375 -27.515625 L 26.625 -10.609375 C 26 -7.179688 24.664062 -4.414062 22.625 -2.3125 C 20.582031 -0.207031 17.863281 0.84375 14.46875 0.84375 Z M 14.46875 0.84375 "/></g></g><g style="fill:#ffffff;fill-opacity:1;"><g transform="translate(245.754993, 271.96357)"><path style="stroke:none" d="M 10.078125 0.84375 C 8.453125 0.84375 6.84375 0.640625 5.25 0.234375 C 3.664062 -0.171875 2.320312 -0.753906 1.21875 -1.515625 L 2.359375 -8.4375 L 2.828125 -8.4375 L 4.1875 -4.578125 C 4.726562 -3.035156 5.429688 -1.898438 6.296875 -1.171875 C 7.160156 -0.453125 8.421875 -0.09375 10.078125 -0.09375 C 11.929688 -0.09375 13.398438 -0.640625 14.484375 -1.734375 C 15.566406 -2.835938 16.109375 -4.160156 16.109375 -5.703125 C 16.109375 -6.515625 15.984375 -7.28125 15.734375 -8 C 15.484375 -8.726562 15.003906 -9.484375 14.296875 -10.265625 C 13.585938 -11.054688 12.546875 -11.9375 11.171875 -12.90625 C 9.472656 -14.132812 8.164062 -15.28125 7.25 -16.34375 C 6.34375 -17.414062 5.71875 -18.46875 5.375 -19.5 C 5.03125 -20.539062 4.859375 -21.597656 4.859375 -22.671875 C 4.859375 -24.523438 5.328125 -26.148438 6.265625 -27.546875 C 7.210938 -28.941406 8.523438 -30.023438 10.203125 -30.796875 C 11.878906 -31.566406 13.785156 -31.953125 15.921875 -31.953125 C 17.492188 -31.953125 19.054688 -31.738281 20.609375 -31.3125 C 22.171875 -30.882812 23.46875 -30.3125 24.5 -29.59375 L 23.1875 -23 L 22.71875 -23 L 21.765625 -26.109375 C 21.265625 -27.773438 20.601562 -29.007812 19.78125 -29.8125 C 18.96875 -30.613281 17.726562 -31.015625 16.0625 -31.015625 C 14.4375 -31.015625 13.0625 -30.539062 11.9375 -29.59375 C 10.820312 -28.65625 10.265625 -27.398438 10.265625 -25.828125 C 10.265625 -24.472656 10.625 -23.242188 11.34375 -22.140625 C 12.070312 -21.046875 13.378906 -19.820312 15.265625 -18.46875 C 17.742188 -16.644531 19.460938 -15.003906 20.421875 -13.546875 C 21.378906 -12.085938 21.859375 -10.507812 21.859375 -8.8125 C 21.859375 -6.800781 21.351562 -5.082031 20.34375 -3.65625 C 19.34375 -2.226562 17.957031 -1.117188 16.1875 -0.328125 C 14.414062 0.453125 12.378906 0.84375 10.078125 0.84375 Z M 10.078125 0.84375 "/></g></g><g style="fill:#ffffff;fill-opacity:1;"><g transform="translate(269.268773, 271.96357)"><path style="stroke:none" d=""/></g></g><g style="fill:#ffffff;fill-opacity:1;"><g transform="translate(279.682718, 271.96357)"><path style="stroke:none" d="M 16.734375 0.84375 C 13.773438 0.84375 11.210938 0.300781 9.046875 -0.78125 C 6.878906 -1.863281 5.207031 -3.429688 4.03125 -5.484375 C 2.851562 -7.546875 2.265625 -10.035156 2.265625 -12.953125 C 2.265625 -15.566406 2.710938 -18.019531 3.609375 -20.3125 C 4.503906 -22.601562 5.773438 -24.617188 7.421875 -26.359375 C 9.066406 -28.109375 11.015625 -29.476562 13.265625 -30.46875 C 15.515625 -31.457031 17.988281 -31.953125 20.6875 -31.953125 C 22.289062 -31.953125 23.804688 -31.78125 25.234375 -31.4375 C 26.660156 -31.09375 28.113281 -30.507812 29.59375 -29.6875 L 28.46875 -22.4375 L 28 -22.4375 L 26.390625 -27.421875 C 25.984375 -28.773438 25.347656 -29.710938 24.484375 -30.234375 C 23.617188 -30.753906 22.476562 -31.015625 21.0625 -31.015625 C 18.644531 -31.015625 16.53125 -30.25 14.71875 -28.71875 C 12.914062 -27.195312 11.507812 -25.078125 10.5 -22.359375 C 9.5 -19.640625 9 -16.488281 9 -12.90625 C 9 -8.976562 9.757812 -5.859375 11.28125 -3.546875 C 12.8125 -1.242188 14.988281 -0.09375 17.8125 -0.09375 C 19.039062 -0.09375 20.035156 -0.328125 20.796875 -0.796875 C 21.566406 -1.273438 22.253906 -2 22.859375 -2.96875 L 26.34375 -8.625 L 26.8125 -8.625 L 25.6875 -1.453125 C 24.457031 -0.765625 23.144531 -0.210938 21.75 0.203125 C 20.351562 0.628906 18.679688 0.84375 16.734375 0.84375 Z M 16.734375 0.84375 "/></g></g><g style="fill:#ffffff;fill-opacity:1;"><g transform="translate(307.955853, 271.96357)"><path style="stroke:none" d="M 14.09375 0.796875 C 11.832031 0.796875 9.820312 0.3125 8.0625 -0.65625 C 6.300781 -1.632812 4.914062 -3.082031 3.90625 -5 C 2.90625 -6.914062 2.40625 -9.300781 2.40625 -12.15625 C 2.40625 -14.757812 2.8125 -17.238281 3.625 -19.59375 C 4.445312 -21.957031 5.617188 -24.066406 7.140625 -25.921875 C 8.660156 -27.773438 10.492188 -29.234375 12.640625 -30.296875 C 14.796875 -31.367188 17.195312 -31.90625 19.84375 -31.90625 C 22.195312 -31.90625 24.253906 -31.378906 26.015625 -30.328125 C 27.773438 -29.273438 29.140625 -27.78125 30.109375 -25.84375 C 31.085938 -23.914062 31.578125 -21.628906 31.578125 -18.984375 C 31.578125 -16.347656 31.164062 -13.835938 30.34375 -11.453125 C 29.53125 -9.066406 28.359375 -6.953125 26.828125 -5.109375 C 25.304688 -3.273438 23.46875 -1.832031 21.3125 -0.78125 C 19.164062 0.269531 16.757812 0.796875 14.09375 0.796875 Z M 14.5625 -0.140625 C 15.976562 -0.140625 17.3125 -0.664062 18.5625 -1.71875 C 19.820312 -2.769531 20.929688 -4.210938 21.890625 -6.046875 C 22.847656 -7.890625 23.597656 -10.023438 24.140625 -12.453125 C 24.691406 -14.890625 24.96875 -17.476562 24.96875 -20.21875 C 24.96875 -23.675781 24.5625 -26.332031 23.75 -28.1875 C 22.9375 -30.039062 21.554688 -30.96875 19.609375 -30.96875 C 18.160156 -30.96875 16.789062 -30.445312 15.5 -29.40625 C 14.21875 -28.363281 13.085938 -26.929688 12.109375 -25.109375 C 11.140625 -23.296875 10.367188 -21.1875 9.796875 -18.78125 C 9.234375 -16.375 8.953125 -13.804688 8.953125 -11.078125 C 8.953125 -7.554688 9.398438 -4.851562 10.296875 -2.96875 C 11.191406 -1.082031 12.613281 -0.140625 14.5625 -0.140625 Z M 14.5625 -0.140625 "/></g></g><g style="fill:#ffffff;fill-opacity:1;"><g transform="translate(339.386132, 271.96357)"><path style="stroke:none" d="M 6.03125 0.609375 C 4.96875 0.609375 4.097656 0.273438 3.421875 -0.390625 C 2.742188 -1.066406 2.40625 -1.878906 2.40625 -2.828125 C 2.40625 -4.023438 2.835938 -5.03125 3.703125 -5.84375 C 4.566406 -6.65625 5.5625 -7.0625 6.6875 -7.0625 C 7.757812 -7.0625 8.632812 -6.71875 9.3125 -6.03125 C 9.988281 -5.34375 10.328125 -4.507812 10.328125 -3.53125 C 10.328125 -2.375 9.894531 -1.394531 9.03125 -0.59375 C 8.164062 0.207031 7.164062 0.609375 6.03125 0.609375 Z M 6.03125 0.609375 "/></g></g></g></svg>